<svg width="376" height="158" xmlns="http://www.w3.org/2000/svg" xmlns:xlink="http://www.w3.org/1999/xlink" overflow="hidden"><defs><clipPath id="clip0"><rect x="150" y="391" width="376" height="158"/></clipPath></defs><g clip-path="url(#clip0)" transform="translate(-150 -391)"><rect x="152" y="394" width="371" height="152" stroke="#8FAADC" stroke-width="4" stroke-miterlimit="8" fill="none"/><path d="M286.625 445.827 280.927 464.538 292.224 464.538ZM416.566 441.53 416.566 455.124 424.222 455.124C426.722 455.124 428.539 454.948 429.672 454.597 430.805 454.245 431.814 453.464 432.699 452.253 433.584 451.042 434.027 449.655 434.027 448.093 434.027 446.608 433.584 445.28 432.699 444.108 431.814 442.936 430.85 442.214 429.808 441.94 428.767 441.667 426.814 441.53 423.949 441.53ZM475.359 441.413C468.81 441.413 465.535 447.168 465.535 458.679 465.535 470.215 468.81 475.983 475.359 475.983 481.7 475.983 484.871 470.228 484.871 458.718 484.871 447.181 481.7 441.413 475.359 441.413ZM403.988 432.038 427.426 432.038C431.749 432.038 435.219 432.539 437.836 433.541 440.453 434.543 442.621 436.384 444.34 439.065 446.058 441.745 446.918 444.725 446.918 448.004 446.918 454.406 443.832 458.999 437.66 461.784L447.504 485.358 433.702 485.358 425.514 464.225 416.566 464.225 416.566 485.358 403.988 485.358ZM359.637 432.038 398.777 432.038 398.777 442.585 385.574 442.585 385.574 485.358 372.918 485.358 372.918 442.585 359.637 442.585ZM280.727 432.038 295.188 432.038 311.879 485.358 298.455 485.358 295.17 474.382 277.93 474.382 274.588 485.358 263.637 485.358ZM179.988 432.038 192.644 432.038 192.644 474.811 213.855 474.811 213.855 485.358 179.988 485.358ZM475.437 431.218C482.879 431.218 488.492 433.998 492.278 439.558 496.064 445.117 497.957 451.478 497.957 458.64 497.957 466.374 496.005 472.897 492.102 478.21 488.199 483.522 482.501 486.179 475.008 486.179 467.826 486.179 462.271 483.483 458.342 478.093 454.413 472.702 452.449 466.179 452.449 458.522 452.449 450.736 454.439 444.239 458.42 439.03 462.401 433.822 468.074 431.218 475.437 431.218ZM334.649 431.218C345.107 431.218 351.832 435.397 354.824 443.757L344.199 447.311C342.77 443.093 339.743 440.983 335.119 440.983 330.183 440.983 327.715 442.585 327.715 445.788 327.715 447.064 328.176 448.145 329.1 449.03 330.023 449.916 332.11 450.685 335.36 451.337 340.795 452.434 344.774 453.542 347.297 454.662 349.819 455.781 351.945 457.584 353.675 460.071 355.405 462.557 356.269 465.336 356.269 468.409 356.269 473.225 354.416 477.391 350.708 480.906 347 484.421 341.504 486.179 334.219 486.179 328.755 486.179 324.104 484.935 320.266 482.448 316.429 479.961 313.898 476.27 312.676 471.374L324.238 468.757C325.538 473.731 329.15 476.218 335.076 476.218 337.934 476.218 340.066 475.664 341.469 474.558 342.872 473.451 343.574 472.129 343.574 470.593 343.574 469.03 342.937 467.819 341.663 466.96 340.388 466.1 337.931 465.293 334.291 464.537 327.503 463.129 322.666 461.208 319.779 458.773 316.892 456.338 315.449 452.778 315.449 448.091 315.449 443.352 317.173 439.355 320.62 436.1 324.067 432.845 328.743 431.218 334.649 431.218ZM240.355 431.218C253.168 431.218 260.381 438.106 261.996 451.882L248.91 452.702C248.727 445.176 245.791 441.413 240.103 441.413 233.578 441.413 230.316 447.207 230.316 458.796 230.316 465.489 231.203 470.026 232.978 472.409 234.752 474.792 237.231 475.983 240.414 475.983 245.581 475.983 248.738 472.624 249.887 465.905L261.996 466.647C261.215 473.028 258.838 477.878 254.867 481.198 250.896 484.518 246.032 486.179 240.277 486.179 233.22 486.179 227.484 483.744 223.07 478.874 218.656 474.004 216.449 467.272 216.449 458.679 216.449 450.632 218.584 444.043 222.855 438.913 227.126 433.783 232.959 431.218 240.355 431.218Z" stroke="#000000" stroke-linejoin="round" stroke-miterlimit="10" fill="#8FAADC" fill-rule="evenodd"/><text fill="#000000" fill-opacity="0" font-family="Arial,Arial_MSFontService,sans-serif" font-size="54.9609" x="179.988" y="479.309">LCASTRO</text><path d="M303.719 501.529 303.719 507.817 307.26 507.817C308.416 507.817 309.256 507.735 309.78 507.573 310.304 507.41 310.771 507.049 311.18 506.489 311.59 505.929 311.795 505.287 311.795 504.565 311.795 503.878 311.59 503.264 311.18 502.722 310.771 502.18 310.325 501.846 309.844 501.719 309.362 501.593 308.458 501.529 307.134 501.529ZM413.323 501.475C410.294 501.475 408.78 504.137 408.78 509.461 408.78 514.796 410.294 517.464 413.323 517.464 416.256 517.464 417.722 514.802 417.722 509.479 417.722 504.143 416.256 501.475 413.323 501.475ZM219.323 501.475C216.294 501.475 214.78 504.137 214.78 509.461 214.78 514.796 216.294 517.464 219.323 517.464 222.256 517.464 223.722 514.802 223.722 509.479 223.722 504.143 222.256 501.475 219.323 501.475ZM451.902 497.139 469.516 497.139 469.516 501.837 457.773 501.837 457.773 506.895 467.005 506.895 467.005 511.538 457.773 511.538 457.773 516.922 469.516 516.922 469.516 521.8 451.902 521.8ZM427.902 497.139 434.128 497.139 442.517 511.683C442.445 510.96 442.409 510.412 442.409 510.039L442.409 497.139 446.871 497.139 446.871 521.8 441.943 521.8 432.292 505.143C432.304 505.564 432.316 505.841 432.328 505.974 432.376 506.395 432.4 506.751 432.4 507.04L432.4 521.8 427.902 521.8ZM392.902 497.139 398.665 497.139 398.665 521.8 392.902 521.8ZM321.649 497.139 327.918 497.139 327.918 512.496C327.918 513.821 328.029 514.796 328.252 515.423 328.475 516.049 328.92 516.546 329.589 516.913 330.257 517.28 331.079 517.464 332.055 517.464 333.139 517.464 334.021 517.283 334.702 516.922 335.382 516.561 335.834 516.082 336.057 515.486 336.28 514.89 336.391 513.893 336.391 512.496L336.391 497.139 341.341 497.139 341.341 512.496C341.341 514.977 341.058 516.823 340.492 518.033 339.926 519.244 338.881 520.237 337.357 521.014 335.834 521.791 333.886 522.179 331.513 522.179 329.14 522.179 327.252 521.83 325.849 521.132 324.446 520.433 323.395 519.439 322.697 518.151 321.998 516.862 321.649 514.977 321.649 512.496ZM297.902 497.139 308.742 497.139C310.741 497.139 312.346 497.371 313.556 497.834 314.767 498.298 315.769 499.149 316.564 500.389 317.359 501.629 317.757 503.007 317.757 504.524 317.757 507.485 316.329 509.609 313.475 510.897L318.028 521.8 311.645 521.8 307.857 512.026 303.719 512.026 303.719 521.8 297.902 521.8ZM276.427 497.139 294.529 497.139 294.529 502.017 288.423 502.017 288.423 521.8 282.569 521.8 282.569 502.017 276.427 502.017ZM232.902 497.139 239.128 497.139 247.517 511.683C247.445 510.96 247.409 510.412 247.409 510.039L247.409 497.139 251.871 497.139 251.871 521.8 246.943 521.8 237.292 505.143C237.304 505.564 237.316 505.841 237.328 505.974 237.376 506.395 237.4 506.751 237.4 507.04L237.4 521.8 232.902 521.8ZM480.607 496.76C485.444 496.76 488.555 498.693 489.938 502.559L485.024 504.203C484.363 502.252 482.963 501.277 480.825 501.277 478.542 501.277 477.4 502.017 477.4 503.499 477.4 504.089 477.614 504.589 478.041 504.998 478.468 505.408 479.433 505.763 480.936 506.065 483.45 506.572 485.29 507.085 486.457 507.603 487.624 508.121 488.607 508.954 489.407 510.104 490.207 511.254 490.607 512.54 490.607 513.961 490.607 516.188 489.749 518.115 488.035 519.741 486.32 521.367 483.778 522.179 480.408 522.179 477.881 522.179 475.73 521.604 473.955 520.454 472.18 519.304 471.01 517.597 470.445 515.332L475.792 514.122C476.393 516.422 478.064 517.572 480.805 517.572 482.127 517.572 483.112 517.317 483.762 516.805 484.411 516.293 484.735 515.682 484.735 514.971 484.735 514.248 484.44 513.688 483.851 513.291 483.262 512.893 482.125 512.52 480.442 512.17 477.302 511.519 475.065 510.63 473.73 509.504 472.395 508.378 471.727 506.731 471.727 504.564 471.727 502.372 472.524 500.523 474.119 499.018 475.713 497.513 477.876 496.76 480.607 496.76ZM413.359 496.76C416.801 496.76 419.397 498.046 421.148 500.617 422.899 503.189 423.775 506.13 423.775 509.443 423.775 513.02 422.872 516.037 421.067 518.494 419.262 520.951 416.626 522.179 413.161 522.179 409.839 522.179 407.27 520.933 405.453 518.44 403.636 515.946 402.727 512.929 402.727 509.388 402.727 505.787 403.648 502.782 405.489 500.373 407.33 497.964 409.954 496.76 413.359 496.76ZM378.784 496.76C384.71 496.76 388.046 499.946 388.793 506.317L382.741 506.696C382.656 503.216 381.298 501.475 378.667 501.475 375.65 501.475 374.141 504.155 374.141 509.515 374.141 512.61 374.551 514.709 375.372 515.811 376.192 516.913 377.339 517.464 378.811 517.464 381.201 517.464 382.661 515.91 383.192 512.803L388.793 513.146C388.431 516.097 387.332 518.34 385.496 519.876 383.659 521.412 381.41 522.179 378.748 522.179 375.484 522.179 372.831 521.053 370.79 518.801 368.748 516.549 367.727 513.435 367.727 509.461 367.727 505.739 368.715 502.692 370.69 500.319 372.665 497.946 375.363 496.76 378.784 496.76ZM355.784 496.76C361.71 496.76 365.046 499.946 365.793 506.317L359.741 506.696C359.656 503.216 358.298 501.475 355.667 501.475 352.65 501.475 351.141 504.155 351.141 509.515 351.141 512.61 351.551 514.709 352.372 515.811 353.192 516.913 354.339 517.464 355.811 517.464 358.201 517.464 359.661 515.91 360.192 512.803L365.793 513.146C365.431 516.097 364.332 518.34 362.496 519.876 360.659 521.412 358.41 522.179 355.748 522.179 352.484 522.179 349.831 521.053 347.79 518.801 345.748 516.549 344.727 513.435 344.727 509.461 344.727 505.739 345.715 502.692 347.69 500.319 349.665 497.946 352.363 496.76 355.784 496.76ZM265.607 496.76C270.444 496.76 273.555 498.693 274.938 502.559L270.024 504.203C269.363 502.252 267.963 501.277 265.825 501.277 263.542 501.277 262.4 502.017 262.4 503.499 262.4 504.089 262.614 504.589 263.041 504.998 263.468 505.408 264.433 505.763 265.936 506.065 268.45 506.572 270.29 507.085 271.457 507.603 272.624 508.121 273.607 508.954 274.407 510.104 275.207 511.254 275.607 512.54 275.607 513.961 275.607 516.188 274.749 518.115 273.035 519.741 271.32 521.367 268.778 522.179 265.408 522.179 262.881 522.179 260.73 521.604 258.955 520.454 257.18 519.304 256.01 517.597 255.445 515.332L260.792 514.122C261.393 516.422 263.064 517.572 265.805 517.572 267.127 517.572 268.112 517.317 268.762 516.805 269.411 516.293 269.735 515.682 269.735 514.971 269.735 514.248 269.44 513.688 268.851 513.291 268.262 512.893 267.125 512.52 265.442 512.17 262.302 511.519 260.065 510.63 258.73 509.504 257.395 508.378 256.727 506.731 256.727 504.564 256.727 502.372 257.524 500.523 259.119 499.018 260.713 497.513 262.876 496.76 265.607 496.76ZM219.359 496.76C222.801 496.76 225.397 498.046 227.148 500.617 228.899 503.189 229.775 506.13 229.775 509.443 229.775 513.02 228.872 516.037 227.067 518.494 225.262 520.951 222.626 522.179 219.161 522.179 215.839 522.179 213.27 520.933 211.453 518.44 209.636 515.946 208.727 512.929 208.727 509.388 208.727 505.787 209.648 502.782 211.489 500.373 213.33 497.964 215.954 496.76 219.359 496.76ZM195.784 496.76C201.71 496.76 205.046 499.946 205.793 506.317L199.741 506.696C199.656 503.216 198.298 501.475 195.667 501.475 192.65 501.475 191.141 504.155 191.141 509.515 191.141 512.61 191.551 514.709 192.372 515.811 193.192 516.913 194.339 517.464 195.811 517.464 198.201 517.464 199.661 515.91 200.192 512.803L205.793 513.146C205.431 516.097 204.332 518.34 202.496 519.876 200.659 521.412 198.41 522.179 195.748 522.179 192.484 522.179 189.831 521.053 187.79 518.801 185.748 516.549 184.727 513.435 184.727 509.461 184.727 505.739 185.715 502.692 187.69 500.319 189.665 497.946 192.363 496.76 195.784 496.76Z" stroke="#000000" stroke-linejoin="round" stroke-miterlimit="10" fill="#8FAADC" fill-rule="evenodd"/><text fill="#000000" fill-opacity="0" font-family="Arial,Arial_MSFontService,sans-serif" font-size="25.4194" x="184.727" y="519.002">CONSTRUCCIONES</text></g></svg>